GIL02_xslow2_RRA_states
nRows=4
nColumns=47

# SIMM Motion File Header:
name GIL02_xslow2_RRA_states
datacolumns 47
datarows 4
otherdata 1
range 0.80250000000000021000 0.80400000000000027000
endheader
time	pelvis_tx	pelvis_ty	pelvis_tz	pelvis_tilt	pelvis_list	pelvis_rotation	hip_flexion_r	hip_adduction_r	hip_rotation_r	knee_angle_r	ankle_angle_r	subtalar_angle_r	mtp_angle_r	hip_flexion_l	hip_adduction_l	hip_rotation_l	knee_angle_l	ankle_angle_l	subtalar_angle_l	mtp_angle_l	lumbar_extension	lumbar_bending	lumbar_rotation	pelvis_tx_u	pelvis_ty_u	pelvis_tz_u	pelvis_tilt_u	pelvis_list_u	pelvis_rotation_u	hip_flexion_r_u	hip_adduction_r_u	hip_rotation_r_u	knee_angle_r_u	ankle_angle_r_u	subtalar_angle_r_u	mtp_angle_r_u	hip_flexion_l_u	hip_adduction_l_u	hip_rotation_l_u	knee_angle_l_u	ankle_angle_l_u	subtalar_angle_l_u	mtp_angle_l_u	lumbar_extension_u	lumbar_bending_u	lumbar_rotation_u
      0.80250000000000021000	      1.62561938613231850000	      0.93575924802930721000	     -0.31539522355323329000	     -2.87644329473889120000	      2.66036989987459500000	      1.37742758015524420000	     28.36921734101157700000	     -5.38373978827779090000	      7.38580251701786850000	    -19.07139729839709800000	     -4.36057953225534960000	     -0.00000000000000467562	      0.00000000000000549435	     -4.50842415800882090000	      7.84494085701893610000	      9.94991569007168050000	     -3.18773440485537350000	     10.56732836677481800000	      0.00000000000013175858	     -0.00000000000026432013	     -0.82346505697535377000	     -1.29899564146964550000	     -0.65083723961142192000	      0.41505681929590471000	     -0.07654680407200599400	     -0.02229901101073886200	     -9.97184445360418970000	      0.27051350939232843000	     13.35457986667459600000	      5.11469255483791940000	    -14.53448155421467400000	    -48.39196817306763900000	    191.12221942185772000000	   -131.94876903800076000000	     -0.00000000000003887695	      0.00000000000003465303	    -15.26249701887853800000	      1.11536490953143530000	      2.31103061815984390000	     -7.17972549126272330000	     23.31127071000229700000	      0.00000000000060558636	     -0.00000000000115646242	     13.48664316047164000000	      3.06850877686335140000	    -11.65984867637787700000
      0.80300000000000027000	      1.62582699693040930000	      0.93572100582774231000	     -0.31540634363206310000	     -2.88140610441059940000	      2.66050844772481240000	      1.38409317833747280000	     28.37170572601110800000	     -5.39098948875510860000	      7.36171392016911420000	    -18.97588303597757100000	     -4.42672544788989870000	     -0.00000000000000469541	      0.00000000000000551186	     -4.51606834880235390000	      7.84550082540949050000	      9.95101340711902790000	     -3.19134616716987860000	     10.57896949393704800000	      0.00000000000013205886	     -0.00000000000026489590	     -0.81674694916792501000	     -1.29745853751426180000	     -0.65661915990756958000	      0.41538671111294223000	     -0.07642190088425253300	     -0.02218081493236594800	     -9.87930557830803300000	      0.28356444618530996000	     13.30777493349613400000	      4.83873715904222750000	    -14.46409755640997800000	    -47.96172378394063400000	    190.93459762101446000000	   -132.63399322534144000000	     -0.00000000000004116017	      0.00000000000003516581	    -15.31440922664821300000	      1.12434092223855920000	      2.07986362473752480000	     -7.26717229907474670000	     23.25318947305884300000	      0.00000000000059171915	     -0.00000000000114060682	     13.38572201126960700000	      3.07990995857010490000	    -11.46730406576529000000
      0.80350000000000021000	      1.62603477317745890000	      0.93568282621703525000	     -0.31541740388088341000	     -2.88632251932936070000	      2.66065335145221700000	      1.39073531941852990000	     28.37405597968023600000	     -5.39820366564914430000	      7.33784148006351340000	    -18.88046293592393000000	     -4.49321262055102190000	     -0.00000000000000471594	      0.00000000000000552929	     -4.52373870292774160000	      7.84606503182063260000	      9.95199559627339350000	     -3.19500142489931790000	     10.59058154537963700000	      0.00000000000013235466	     -0.00000000000026545704	     -0.81007939263003825000	     -1.29591572894671450000	     -0.66230403055220644000	      0.41571860668865152000	     -0.07629646619299007600	     -0.02205969529415815700	     -9.78628089217806970000	      0.29593813948931358000	     13.26075603478376200000	      4.56219116125536670000	    -14.39239251127373000000	    -47.52735895554613400000	    190.74556515911254000000	   -133.31378700198215000000	     -0.00000000000004073848	      0.00000000000003444020	    -15.36713552700136800000	      1.13232018200409800000	      1.84895238624584390000	     -7.35370545149180450000	     23.19504310757828900000	      0.00000000000060115083	     -0.00000000000113002258	     13.28445499432177700000	      3.09132652738710560000	    -11.27168093992114200000
      0.80400000000000027000	      1.62624271586565360000	      0.93564470943679090000	     -0.31542840284353985000	     -2.89119231235053100000	      2.66080427375515780000	      1.39735390123677060000	     28.37626783120241900000	     -5.40538166502567210000	      7.31418723681373880000	    -18.78513770798904800000	     -4.56003832300727120000	     -0.00000000000000473651	      0.00000000000000554682	     -4.53143561092386540000	      7.84663298147269380000	      9.95286241506726200000	     -3.19869972206197240000	     10.60216453124992800000	      0.00000000000013264780	     -0.00000000000026600951	     -0.80346254318972377000	     -1.29436720887145220000	     -0.66789034341314157000	      0.41605247319040883000	     -0.07617058021907879800	     -0.02193567290252389600	     -9.69281860749074480000	      0.30763914786692204000	     13.21353838674799500000	      4.28512968113918190000	    -14.31939009504875000000	    -47.08894107824480800000	    190.55510990750778000000	   -133.98810864024694000000	     -0.00000000000004095549	      0.00000000000003569093	    -15.42062133256615500000	      1.13931469993004790000	      1.61837481816339950000	     -7.43933512859987100000	     23.13686205701363700000	      0.00000000000056575943	     -0.00000000000108448420	     13.18289400628862600000	      3.10275579097656000000	    -11.07307345425082100000
